<svg xmlns="http://www.w3.org/2000/svg" width="256" height="256" viewBox="0 0 256 256" role="img" aria-labelledby="title desc">
  <title id="title">StackMIREA</title>
  <desc id="desc">Фиолетовый знак образовательной платформы StackMIREA</desc>
  <defs>
    <linearGradient id="background" x1="32" y1="24" x2="224" y2="232" gradientUnits="userSpaceOnUse">
      <stop stop-color="#A855F7"/>
      <stop offset=".5" stop-color="#7C3AED"/>
      <stop offset="1" stop-color="#4F46E5"/>
    </linearGradient>
    <linearGradient id="highlight" x1="72" y1="57" x2="183" y2="190" gradientUnits="userSpaceOnUse">
      <stop stop-color="#FFFFFF"/>
      <stop offset="1" stop-color="#EDE9FE"/>
    </linearGradient>
  </defs>

  <rect x="8" y="8" width="240" height="240" rx="58" fill="#1E1038"/>
  <rect x="12" y="12" width="232" height="232" rx="54" fill="url(#background)"/>
  <path d="M58 82.5 121 52l63 30.5-63 30.5-63-30.5Z" fill="url(#highlight)"/>
  <path d="M58 116.5 121 147l63-30.5v25L121 172l-63-30.5v-25Z" fill="#FFFFFF" opacity=".82"/>
  <path d="M58 158.5 121 189l63-30.5v25L121 214l-63-30.5v-25Z" fill="#FFFFFF" opacity=".58"/>
  <path d="m187 76 22 11-22 11" fill="none" stroke="#FFFFFF" stroke-linecap="round" stroke-linejoin="round" stroke-width="9"/>
</svg>
