<svg xmlns="http://www.w3.org/2000/svg" viewBox="0 0 256 256" role="img" aria-label="Python icon">
  <rect width="256" height="256" rx="44" fill="#111827"/>
  <path d="M128 30c-39 0-37 17-37 17v18h38v5H76s-25-3-25 38 22 39 22 39h14v-19s-1-22 21-22h35s20 0 20-20V50s3-20-36-20Zm-21 12a8 8 0 1 1 0 16 8 8 0 0 1 0-16Z" fill="#ffd43b"/>
  <path d="M129 226c39 0 36-17 36-17v-18h-38v-5h53s25 3 25-38-22-39-22-39h-14v19s1 22-21 22h-35s-20 0-20 20v36s-3 20 36 20Zm21-12a8 8 0 1 1 0-16 8 8 0 0 1 0 16Z" fill="#3776ab"/>
</svg>
